<svg width="176" height="56" viewBox="0 0 176 56" fill="none" xmlns="http://www.w3.org/2000/svg">
<ellipse cx="18.6667" cy="18.1481" rx="18.6667" ry="18.1481" fill="#0039FF"/>
<ellipse cx="18.6667" cy="37.8519" rx="18.6667" ry="18.1481" fill="#0039FF"/>
<ellipse cx="37.3333" cy="37.8519" rx="18.6667" ry="18.1481" fill="#0039FF"/>
<ellipse cx="37.3333" cy="18.1481" rx="18.6667" ry="18.1481" fill="#0039FF"/>
<path d="M67.992 26V9.2H76.2C78.312 9.2 79.896 9.6 80.952 10.4C82.024 11.2 82.56 12.256 82.56 13.568C82.56 14.448 82.344 15.216 81.912 15.872C81.48 16.512 80.888 17.008 80.136 17.36C79.384 17.712 78.52 17.888 77.544 17.888L78 16.904C79.056 16.904 79.992 17.08 80.808 17.432C81.624 17.768 82.256 18.272 82.704 18.944C83.168 19.616 83.4 20.44 83.4 21.416C83.4 22.856 82.832 23.984 81.696 24.8C80.56 25.6 78.888 26 76.68 26H67.992ZM71.856 23.072H76.392C77.4 23.072 78.16 22.912 78.672 22.592C79.2 22.256 79.464 21.728 79.464 21.008C79.464 20.304 79.2 19.784 78.672 19.448C78.16 19.096 77.4 18.92 76.392 18.92H71.568V16.088H75.72C76.664 16.088 77.384 15.928 77.88 15.608C78.392 15.272 78.648 14.768 78.648 14.096C78.648 13.44 78.392 12.952 77.88 12.632C77.384 12.296 76.664 12.128 75.72 12.128H71.856V23.072ZM86.3436 26V9.2H90.2316V26H86.3436ZM94.2186 26V9.2H97.4346L107.347 21.296H105.787V9.2H109.627V26H106.435L96.4986 13.904H98.0586V26H94.2186ZM113.601 26V9.2H117.489V26H113.601Z" fill="#0039FF"/>
<path d="M67.992 48V31.2H75.264C76.768 31.2 78.064 31.448 79.152 31.944C80.24 32.424 81.08 33.12 81.672 34.032C82.264 34.944 82.56 36.032 82.56 37.296C82.56 38.544 82.264 39.624 81.672 40.536C81.08 41.448 80.24 42.152 79.152 42.648C78.064 43.128 76.768 43.368 75.264 43.368H70.152L71.88 41.616V48H67.992ZM71.88 42.048L70.152 40.2H75.048C76.248 40.2 77.144 39.944 77.736 39.432C78.328 38.92 78.624 38.208 78.624 37.296C78.624 36.368 78.328 35.648 77.736 35.136C77.144 34.624 76.248 34.368 75.048 34.368H70.152L71.88 32.52V42.048ZM91.1923 48.192C89.8163 48.192 88.5923 47.904 87.5203 47.328C86.4643 46.752 85.6243 45.968 85.0003 44.976C84.3923 43.968 84.0883 42.824 84.0883 41.544C84.0883 40.248 84.3923 39.104 85.0003 38.112C85.6243 37.104 86.4643 36.32 87.5203 35.76C88.5923 35.184 89.8163 34.896 91.1923 34.896C92.5523 34.896 93.7683 35.184 94.8403 35.76C95.9123 36.32 96.7523 37.096 97.3603 38.088C97.9683 39.08 98.2723 40.232 98.2723 41.544C98.2723 42.824 97.9683 43.968 97.3603 44.976C96.7523 45.968 95.9123 46.752 94.8403 47.328C93.7683 47.904 92.5523 48.192 91.1923 48.192ZM91.1923 45.12C91.8163 45.12 92.3763 44.976 92.8723 44.688C93.3683 44.4 93.7603 43.992 94.0483 43.464C94.3363 42.92 94.4803 42.28 94.4803 41.544C94.4803 40.792 94.3363 40.152 94.0483 39.624C93.7603 39.096 93.3683 38.688 92.8723 38.4C92.3763 38.112 91.8163 37.968 91.1923 37.968C90.5683 37.968 90.0083 38.112 89.5123 38.4C89.0163 38.688 88.6163 39.096 88.3123 39.624C88.0243 40.152 87.8803 40.792 87.8803 41.544C87.8803 42.28 88.0243 42.92 88.3123 43.464C88.6163 43.992 89.0163 44.4 89.5123 44.688C90.0083 44.976 90.5683 45.12 91.1923 45.12ZM100.775 48V35.088H104.351V38.736L103.847 37.68C104.231 36.768 104.847 36.08 105.695 35.616C106.543 35.136 107.575 34.896 108.791 34.896V38.352C108.631 38.336 108.487 38.328 108.359 38.328C108.231 38.312 108.095 38.304 107.951 38.304C106.927 38.304 106.095 38.6 105.455 39.192C104.831 39.768 104.519 40.672 104.519 41.904V48H100.775ZM116.742 48.192C115.222 48.192 114.038 47.808 113.19 47.04C112.342 46.256 111.918 45.096 111.918 43.56V32.232H115.662V43.512C115.662 44.056 115.806 44.48 116.094 44.784C116.382 45.072 116.774 45.216 117.27 45.216C117.862 45.216 118.366 45.056 118.782 44.736L119.79 47.376C119.406 47.648 118.942 47.856 118.398 48C117.87 48.128 117.318 48.192 116.742 48.192ZM109.926 38.256V35.376H118.878V38.256H109.926ZM122.348 48V34.8C122.348 33.344 122.78 32.184 123.644 31.32C124.508 30.44 125.74 30 127.34 30C127.884 30 128.404 30.056 128.9 30.168C129.412 30.28 129.844 30.456 130.196 30.696L129.212 33.408C129.004 33.264 128.772 33.152 128.516 33.072C128.26 32.992 127.988 32.952 127.7 32.952C127.156 32.952 126.732 33.112 126.428 33.432C126.14 33.736 125.996 34.2 125.996 34.824V36.024L126.092 37.632V48H122.348ZM120.356 38.256V35.376H129.308V38.256H120.356ZM137.153 48.192C135.777 48.192 134.553 47.904 133.481 47.328C132.425 46.752 131.585 45.968 130.961 44.976C130.353 43.968 130.049 42.824 130.049 41.544C130.049 40.248 130.353 39.104 130.961 38.112C131.585 37.104 132.425 36.32 133.481 35.76C134.553 35.184 135.777 34.896 137.153 34.896C138.513 34.896 139.729 35.184 140.801 35.76C141.873 36.32 142.713 37.096 143.321 38.088C143.929 39.08 144.233 40.232 144.233 41.544C144.233 42.824 143.929 43.968 143.321 44.976C142.713 45.968 141.873 46.752 140.801 47.328C139.729 47.904 138.513 48.192 137.153 48.192ZM137.153 45.12C137.777 45.12 138.337 44.976 138.833 44.688C139.329 44.4 139.721 43.992 140.009 43.464C140.297 42.92 140.441 42.28 140.441 41.544C140.441 40.792 140.297 40.152 140.009 39.624C139.721 39.096 139.329 38.688 138.833 38.4C138.337 38.112 137.777 37.968 137.153 37.968C136.529 37.968 135.969 38.112 135.473 38.4C134.977 38.688 134.577 39.096 134.273 39.624C133.985 40.152 133.841 40.792 133.841 41.544C133.841 42.28 133.985 42.92 134.273 43.464C134.577 43.992 134.977 44.4 135.473 44.688C135.969 44.976 136.529 45.12 137.153 45.12ZM146.736 48V30.192H150.48V48H146.736ZM153.955 48V35.088H157.699V48H153.955ZM155.827 33.288C155.139 33.288 154.579 33.088 154.147 32.688C153.715 32.288 153.499 31.792 153.499 31.2C153.499 30.608 153.715 30.112 154.147 29.712C154.579 29.312 155.139 29.112 155.827 29.112C156.515 29.112 157.075 29.304 157.507 29.688C157.939 30.056 158.155 30.536 158.155 31.128C158.155 31.752 157.939 32.272 157.507 32.688C157.091 33.088 156.531 33.288 155.827 33.288ZM167.317 48.192C165.941 48.192 164.717 47.904 163.645 47.328C162.589 46.752 161.749 45.968 161.125 44.976C160.517 43.968 160.213 42.824 160.213 41.544C160.213 40.248 160.517 39.104 161.125 38.112C161.749 37.104 162.589 36.32 163.645 35.76C164.717 35.184 165.941 34.896 167.317 34.896C168.677 34.896 169.893 35.184 170.965 35.76C172.037 36.32 172.877 37.096 173.485 38.088C174.093 39.08 174.397 40.232 174.397 41.544C174.397 42.824 174.093 43.968 173.485 44.976C172.877 45.968 172.037 46.752 170.965 47.328C169.893 47.904 168.677 48.192 167.317 48.192ZM167.317 45.12C167.941 45.12 168.501 44.976 168.997 44.688C169.493 44.4 169.885 43.992 170.173 43.464C170.461 42.92 170.605 42.28 170.605 41.544C170.605 40.792 170.461 40.152 170.173 39.624C169.885 39.096 169.493 38.688 168.997 38.4C168.501 38.112 167.941 37.968 167.317 37.968C166.693 37.968 166.133 38.112 165.637 38.4C165.141 38.688 164.741 39.096 164.437 39.624C164.149 40.152 164.005 40.792 164.005 41.544C164.005 42.28 164.149 42.92 164.437 43.464C164.741 43.992 165.141 44.4 165.637 44.688C166.133 44.976 166.693 45.12 167.317 45.12Z" fill="#101527"/>
</svg>
