<svg width="176" height="56" viewBox="0 0 176 56" fill="none" xmlns="http://www.w3.org/2000/svg">
<path d="M18.6667 36.2962C28.976 36.2962 37.3334 28.171 37.3334 18.1481C37.3334 8.12518 28.976 0 18.6667 0C8.35737 0 0 8.12518 0 18.1481C0 28.171 8.35737 36.2962 18.6667 36.2962Z" fill="white"/>
<path d="M18.6667 55.9998C28.976 55.9998 37.3334 47.8746 37.3334 37.8517C37.3334 27.8288 28.976 19.7036 18.6667 19.7036C8.35737 19.7036 0 27.8288 0 37.8517C0 47.8746 8.35737 55.9998 18.6667 55.9998Z" fill="white"/>
<path d="M37.3332 55.9998C47.6425 55.9998 55.9999 47.8746 55.9999 37.8517C55.9999 27.8288 47.6425 19.7036 37.3332 19.7036C27.0239 19.7036 18.6665 27.8288 18.6665 37.8517C18.6665 47.8746 27.0239 55.9998 37.3332 55.9998Z" fill="white"/>
<path d="M37.3332 36.2962C47.6425 36.2962 55.9999 28.171 55.9999 18.1481C55.9999 8.12518 47.6425 0 37.3332 0C27.0239 0 18.6665 8.12518 18.6665 18.1481C18.6665 28.171 27.0239 36.2962 37.3332 36.2962Z" fill="white"/>
<path d="M67.9922 26.0002V9.2002H76.2002C78.3122 9.2002 79.8962 9.6002 80.9522 10.4002C82.0242 11.2002 82.5602 12.2562 82.5602 13.5682C82.5602 14.4482 82.3442 15.2162 81.9122 15.8722C81.4802 16.5122 80.8882 17.0082 80.1362 17.3602C79.3842 17.7122 78.5202 17.8882 77.5442 17.8882L78.0002 16.9042C79.0562 16.9042 79.9922 17.0802 80.8082 17.4322C81.6242 17.7682 82.2562 18.2722 82.7042 18.9442C83.1682 19.6162 83.4002 20.4402 83.4002 21.4162C83.4002 22.8562 82.8322 23.9842 81.6962 24.8002C80.5602 25.6002 78.8882 26.0002 76.6802 26.0002H67.9922ZM71.8562 23.0722H76.3922C77.4002 23.0722 78.1602 22.9122 78.6722 22.5922C79.2002 22.2562 79.4642 21.7282 79.4642 21.0082C79.4642 20.3042 79.2002 19.7842 78.6722 19.4482C78.1602 19.0962 77.4002 18.9202 76.3922 18.9202H71.5682V16.0882H75.7202C76.6642 16.0882 77.3842 15.9282 77.8802 15.6082C78.3922 15.2722 78.6482 14.7682 78.6482 14.0962C78.6482 13.4402 78.3922 12.9522 77.8802 12.6322C77.3842 12.2962 76.6642 12.1282 75.7202 12.1282H71.8562V23.0722ZM86.3438 26.0002V9.2002H90.2318V26.0002H86.3438ZM94.2188 26.0002V9.2002H97.4348L107.347 21.2962H105.787V9.2002H109.627V26.0002H106.435L96.4988 13.9042H98.0588V26.0002H94.2188ZM113.601 26.0002V9.2002H117.489V26.0002H113.601Z" fill="white"/>
<path d="M67.9922 47.9998V31.1998H75.2642C76.7682 31.1998 78.0642 31.4478 79.1522 31.9438C80.2402 32.4238 81.0802 33.1198 81.6722 34.0318C82.2642 34.9438 82.5602 36.0318 82.5602 37.2958C82.5602 38.5438 82.2642 39.6238 81.6722 40.5358C81.0802 41.4478 80.2402 42.1518 79.1522 42.6478C78.0642 43.1278 76.7682 43.3678 75.2642 43.3678H70.1522L71.8802 41.6158V47.9998H67.9922ZM71.8802 42.0478L70.1522 40.1998H75.0482C76.2482 40.1998 77.1442 39.9438 77.7362 39.4318C78.3282 38.9198 78.6242 38.2078 78.6242 37.2958C78.6242 36.3678 78.3282 35.6478 77.7362 35.1358C77.1442 34.6238 76.2482 34.3678 75.0482 34.3678H70.1522L71.8802 32.5198V42.0478ZM91.1925 48.1918C89.8165 48.1918 88.5925 47.9038 87.5205 47.3278C86.4645 46.7518 85.6245 45.9678 85.0005 44.9758C84.3925 43.9678 84.0885 42.8238 84.0885 41.5438C84.0885 40.2478 84.3925 39.1038 85.0005 38.1118C85.6245 37.1038 86.4645 36.3198 87.5205 35.7598C88.5925 35.1838 89.8165 34.8958 91.1925 34.8958C92.5525 34.8958 93.7685 35.1838 94.8405 35.7598C95.9125 36.3198 96.7525 37.0958 97.3605 38.0878C97.9685 39.0798 98.2725 40.2318 98.2725 41.5438C98.2725 42.8238 97.9685 43.9678 97.3605 44.9758C96.7525 45.9678 95.9125 46.7518 94.8405 47.3278C93.7685 47.9038 92.5525 48.1918 91.1925 48.1918ZM91.1925 45.1198C91.8165 45.1198 92.3765 44.9758 92.8725 44.6878C93.3685 44.3998 93.7605 43.9918 94.0485 43.4638C94.3365 42.9198 94.4805 42.2798 94.4805 41.5438C94.4805 40.7918 94.3365 40.1518 94.0485 39.6238C93.7605 39.0958 93.3685 38.6878 92.8725 38.3998C92.3765 38.1118 91.8165 37.9678 91.1925 37.9678C90.5685 37.9678 90.0085 38.1118 89.5125 38.3998C89.0165 38.6878 88.6165 39.0958 88.3125 39.6238C88.0245 40.1518 87.8805 40.7918 87.8805 41.5438C87.8805 42.2798 88.0245 42.9198 88.3125 43.4638C88.6165 43.9918 89.0165 44.3998 89.5125 44.6878C90.0085 44.9758 90.5685 45.1198 91.1925 45.1198ZM100.775 47.9998V35.0878H104.351V38.7358L103.847 37.6798C104.231 36.7678 104.847 36.0798 105.695 35.6158C106.543 35.1358 107.575 34.8958 108.791 34.8958V38.3518C108.631 38.3358 108.487 38.3278 108.359 38.3278C108.231 38.3118 108.095 38.3038 107.951 38.3038C106.927 38.3038 106.095 38.5998 105.455 39.1918C104.831 39.7678 104.519 40.6718 104.519 41.9038V47.9998H100.775ZM116.742 48.1918C115.222 48.1918 114.038 47.8078 113.19 47.0398C112.342 46.2558 111.918 45.0958 111.918 43.5598V32.2318H115.662V43.5118C115.662 44.0558 115.806 44.4798 116.094 44.7838C116.382 45.0718 116.774 45.2158 117.27 45.2158C117.862 45.2158 118.366 45.0558 118.782 44.7358L119.79 47.3758C119.406 47.6478 118.942 47.8558 118.398 47.9998C117.87 48.1278 117.318 48.1918 116.742 48.1918ZM109.926 38.2558V35.3758H118.878V38.2558H109.926ZM122.348 47.9998V34.7998C122.348 33.3438 122.78 32.1838 123.644 31.3198C124.508 30.4398 125.74 29.9998 127.34 29.9998C127.884 29.9998 128.404 30.0558 128.9 30.1678C129.412 30.2798 129.844 30.4558 130.196 30.6958L129.212 33.4078C129.004 33.2638 128.772 33.1518 128.516 33.0718C128.26 32.9918 127.988 32.9518 127.7 32.9518C127.156 32.9518 126.732 33.1118 126.428 33.4318C126.14 33.7358 125.996 34.1998 125.996 34.8238V36.0238L126.092 37.6318V47.9998H122.348ZM120.356 38.2558V35.3758H129.308V38.2558H120.356ZM137.153 48.1918C135.777 48.1918 134.553 47.9038 133.481 47.3278C132.425 46.7518 131.585 45.9678 130.961 44.9758C130.353 43.9678 130.049 42.8238 130.049 41.5438C130.049 40.2478 130.353 39.1038 130.961 38.1118C131.585 37.1038 132.425 36.3198 133.481 35.7598C134.553 35.1838 135.777 34.8958 137.153 34.8958C138.513 34.8958 139.729 35.1838 140.801 35.7598C141.873 36.3198 142.713 37.0958 143.321 38.0878C143.929 39.0798 144.233 40.2318 144.233 41.5438C144.233 42.8238 143.929 43.9678 143.321 44.9758C142.713 45.9678 141.873 46.7518 140.801 47.3278C139.729 47.9038 138.513 48.1918 137.153 48.1918ZM137.153 45.1198C137.777 45.1198 138.337 44.9758 138.833 44.6878C139.329 44.3998 139.721 43.9918 140.009 43.4638C140.297 42.9198 140.441 42.2798 140.441 41.5438C140.441 40.7918 140.297 40.1518 140.009 39.6238C139.721 39.0958 139.329 38.6878 138.833 38.3998C138.337 38.1118 137.777 37.9678 137.153 37.9678C136.529 37.9678 135.969 38.1118 135.473 38.3998C134.977 38.6878 134.577 39.0958 134.273 39.6238C133.985 40.1518 133.841 40.7918 133.841 41.5438C133.841 42.2798 133.985 42.9198 134.273 43.4638C134.577 43.9918 134.977 44.3998 135.473 44.6878C135.969 44.9758 136.529 45.1198 137.153 45.1198ZM146.736 47.9998V30.1918H150.48V47.9998H146.736ZM153.955 47.9998V35.0878H157.699V47.9998H153.955ZM155.827 33.2878C155.139 33.2878 154.579 33.0878 154.147 32.6878C153.715 32.2878 153.499 31.7918 153.499 31.1998C153.499 30.6078 153.715 30.1118 154.147 29.7118C154.579 29.3118 155.139 29.1118 155.827 29.1118C156.515 29.1118 157.075 29.3038 157.507 29.6878C157.939 30.0558 158.155 30.5358 158.155 31.1278C158.155 31.7518 157.939 32.2718 157.507 32.6878C157.091 33.0878 156.531 33.2878 155.827 33.2878ZM167.317 48.1918C165.941 48.1918 164.717 47.9038 163.645 47.3278C162.589 46.7518 161.749 45.9678 161.125 44.9758C160.517 43.9678 160.213 42.8238 160.213 41.5438C160.213 40.2478 160.517 39.1038 161.125 38.1118C161.749 37.1038 162.589 36.3198 163.645 35.7598C164.717 35.1838 165.941 34.8958 167.317 34.8958C168.677 34.8958 169.893 35.1838 170.965 35.7598C172.037 36.3198 172.877 37.0958 173.485 38.0878C174.093 39.0798 174.397 40.2318 174.397 41.5438C174.397 42.8238 174.093 43.9678 173.485 44.9758C172.877 45.9678 172.037 46.7518 170.965 47.3278C169.893 47.9038 168.677 48.1918 167.317 48.1918ZM167.317 45.1198C167.941 45.1198 168.501 44.9758 168.997 44.6878C169.493 44.3998 169.885 43.9918 170.173 43.4638C170.461 42.9198 170.605 42.2798 170.605 41.5438C170.605 40.7918 170.461 40.1518 170.173 39.6238C169.885 39.0958 169.493 38.6878 168.997 38.3998C168.501 38.1118 167.941 37.9678 167.317 37.9678C166.693 37.9678 166.133 38.1118 165.637 38.3998C165.141 38.6878 164.741 39.0958 164.437 39.6238C164.149 40.1518 164.005 40.7918 164.005 41.5438C164.005 42.2798 164.149 42.9198 164.437 43.4638C164.741 43.9918 165.141 44.3998 165.637 44.6878C166.133 44.9758 166.693 45.1198 167.317 45.1198Z" fill="white"/>
</svg>
