<svg width="28" height="28" viewBox="0 0 28 28" fill="none" xmlns="http://www.w3.org/2000/svg">
<path d="M14 22.1667H5.83333C5.21449 22.1667 4.621 21.9208 4.18342 21.4832C3.74583 21.0457 3.5 20.4522 3.5 19.8333V8.16666M3.5 8.16666C3.5 7.54782 3.74583 6.95433 4.18342 6.51675C4.621 6.07916 5.21449 5.83333 5.83333 5.83333H22.1667C22.7855 5.83333 23.379 6.07916 23.8166 6.51675C24.2542 6.95433 24.5 7.54782 24.5 8.16666M3.5 8.16666L14 15.1667L24.5 8.16666M24.5 8.16666V14.5833M18.6667 22.1667H25.6667M22.1667 18.6667V25.6667" stroke="#354052" stroke-width="2" stroke-linecap="round" stroke-linejoin="round"/>
</svg>
