<svg width="38" height="38" viewBox="0 0 38 38" fill="none" xmlns="http://www.w3.org/2000/svg">
<path d="M19.0001 7.9165V7.93234M26.9167 11.0832V11.099M30.0834 18.9998V19.0157M26.9167 26.9165V26.9323M19.0001 30.0832V30.099M11.0834 26.9165V26.9323M7.91675 18.9998V19.0157M11.0834 11.0832V11.099M14.2501 18.9998C14.2501 20.2596 14.7505 21.4678 15.6413 22.3586C16.5321 23.2494 17.7403 23.7498 19.0001 23.7498C20.2599 23.7498 21.468 23.2494 22.3588 22.3586C23.2496 21.4678 23.7501 20.2596 23.7501 18.9998C23.7501 17.7401 23.2496 16.5319 22.3588 15.6411C21.468 14.7503 20.2599 14.2498 19.0001 14.2498C17.7403 14.2498 16.5321 14.7503 15.6413 15.6411C14.7505 16.5319 14.2501 17.7401 14.2501 18.9998Z" stroke="#354052" stroke-width="2.5" stroke-linecap="round" stroke-linejoin="round"/>
</svg>
