<?xml version="1.0" encoding="UTF-8"?><svg xmlns="http://www.w3.org/2000/svg" viewBox="0 0 1272 443.61"><defs><style>.d{fill:#0039ff;}</style></defs><g id="a"/><g id="b"><g id="c"><path class="d" d="M1050.19,0c-52.2,0-100.18,18.04-138.06,48.21C874.24,18.04,826.26,0,774.06,0s-100.18,18.04-138.06,48.21C598.11,18.04,550.13,0,497.94,0s-100.18,18.04-138.06,48.21C321.98,18.04,274,0,221.81,0,99.31,0,0,99.31,0,221.81s99.31,221.81,221.81,221.81c52.2,0,100.18-18.04,138.06-48.21,37.89,30.17,85.87,48.21,138.06,48.21s100.18-18.04,138.06-48.21c37.89,30.17,85.87,48.21,138.06,48.21s100.18-18.04,138.06-48.21c37.89,30.17,85.87,48.21,138.06,48.21,122.5,0,221.81-99.31,221.81-221.81S1172.69,0,1050.19,0Z"/></g></g></svg>